<svg width="396" height="401" fill="none" xmlns="http://www.w3.org/2000/svg"><path d="M165.135.156C74.139.156.086 74.21.086 165.205c0 90.996 74.053 165.048 165.049 165.048 39.666 0 76.108-14.076 104.605-37.488l107.393 107.391 18.781-18.78L288.85 274.314c25.706-29.111 41.333-67.319 41.333-109.109C330.183 74.208 256.131.156 165.135.156Zm0 26.56c76.642 0 138.489 61.846 138.489 138.489 0 76.642-61.847 138.489-138.489 138.489-76.643 0-138.49-61.847-138.49-138.489 0-76.643 61.847-138.49 138.49-138.49Z" fill="#000"/></svg>