<svg xmlns="http://www.w3.org/2000/svg" width="5799.182" height="4001.718"><path style="color:#000;font-style:normal;font-variant:normal;font-weight:400;font-stretch:normal;font-size:medium;line-height:normal;font-family:sans-serif;text-indent:0;text-align:start;text-decoration:none;text-decoration-line:none;text-decoration-style:solid;text-decoration-color:#000;letter-spacing:normal;word-spacing:normal;text-transform:none;direction:ltr;block-progression:tb;writing-mode:lr-tb;baseline-shift:baseline;text-anchor:start;white-space:normal;clip-rule:nonzero;display:inline;overflow:visible;visibility:visible;opacity:1;isolation:auto;mix-blend-mode:normal;color-interpolation:sRGB;color-interpolation-filters:linearRGB;solid-color:#000;solid-opacity:1;fill:#000;fill-opacity:1;fill-rule:nonzero;stroke:none;stroke-width:25.00000191;stroke-linecap:butt;stroke-linejoin:miter;stroke-miterlimit:4;stroke-dasharray:none;stroke-dashoffset:0;stroke-opacity:1;color-rendering:auto;image-rendering:auto;shape-rendering:auto;text-rendering:auto;enable-background:accumulate" d="M5539.807 681.087v56.654l-40.06-40.06-83.972 83.969 40.063 40.062h-56.656v118.75h56.656l-40.063 40.06 83.971 83.97 40.06-40.061v56.656h118.75v-56.658l40.063 40.063 83.969-83.97-40.063-40.06h56.657v-118.75h-56.657l40.06-40.062-83.966-83.97-40.062 40.063v-56.656h-118.75zm25 25h68.75V798.1l65.062-65.063 48.613 48.614-65.062 65.062h92.012v68.75h-92.014l65.064 65.063-48.613 48.611-65.062-65.063v92.014h-68.75v-92.014l-65.06 65.063-48.614-48.613 65.062-65.06h-92.013v-68.75h92.011l-65.06-65.061 48.613-48.616 65.06 65.063v-92.012zm34.375 98.885c-41.89 0-76.116 34.225-76.116 76.115 0 41.89 34.226 76.118 76.116 76.117 41.89 0 76.117-34.227 76.117-76.117 0-41.89-34.227-76.115-76.117-76.115zm0 25a50.928 50.928 0 0 1 51.117 51.115 50.93 50.93 0 0 1-51.117 51.117 50.927 50.927 0 0 1-51.116-51.117 50.926 50.926 0 0 1 51.116-51.115z" transform="translate(0 -680.077)"/><path style="color:#000;font-style:normal;font-variant:normal;font-weight:400;font-stretch:normal;font-size:medium;line-height:normal;font-family:sans-serif;text-indent:0;text-align:start;text-decoration:none;text-decoration-line:none;text-decoration-style:solid;text-decoration-color:#000;letter-spacing:normal;word-spacing:normal;text-transform:none;direction:ltr;block-progression:tb;writing-mode:lr-tb;baseline-shift:baseline;text-anchor:start;white-space:normal;clip-rule:nonzero;display:inline;overflow:visible;visibility:visible;opacity:1;isolation:auto;mix-blend-mode:normal;color-interpolation:sRGB;color-interpolation-filters:linearRGB;solid-color:#000;solid-opacity:1;fill:#000;fill-opacity:1;fill-rule:nonzero;stroke:none;stroke-width:25;stroke-linecap:butt;stroke-linejoin:miter;stroke-miterlimit:4;stroke-dasharray:none;stroke-dashoffset:0;stroke-opacity:1;color-rendering:auto;image-rendering:auto;shape-rendering:auto;text-rendering:auto;enable-background:accumulate" d="M200.254 680.077.127 733.336l-.096-.028v.053L0 733.37l.031.01v287.793l199.985 58.905L400 1021.173V733.309l-.201.058-199.545-53.29zM23.539 765.04l164.555 48.47v238.246l-164.555-48.47V765.042zm352.953 0v238.247l-164.555 48.468V813.51l164.555-48.469zM41.112 804.74v47.992l124.247 38.008v-47.992L41.111 804.739z" transform="translate(0 -680.077)"/><path style="opacity:1;fill:#000;fill-opacity:1;stroke:none;stroke-width:25;stroke-miterlimit:4;stroke-dasharray:none;stroke-dashoffset:0;stroke-opacity:1" d="M1200.772 680.077v400h400v-400h-375zm25 25h162.5v350h-162.5zm187.5 0h162.5v98.5h-162.5zm0 123.5h162.5v107h-162.5zm0 132h162.5v94.5h-162.5z" transform="translate(0 -680.077)"/><path style="opacity:1;fill:#000;fill-opacity:1;stroke:none;stroke-width:25;stroke-miterlimit:4;stroke-dasharray:none;stroke-dashoffset:0;stroke-opacity:1" d="M1800.857 680.077v400h400v-400zm25 25h95v350h-95zm120 0h111v350h-111zm136 0h94v350h-94z" transform="translate(0 -680.077)"/><path style="opacity:1;fill:#000;fill-opacity:1;stroke:none;stroke-width:25;stroke-miterlimit:4;stroke-dasharray:none;stroke-dashoffset:0;stroke-opacity:1" d="M2399.453 680.077v25h400v-25h-400zm0 131v25h400v-25h-400zm0 124v25h400v-25h-400zm0 120v25h400v-25h-400z" transform="translate(0 -680.077)"/><path style="color:#000;font-style:normal;font-variant:normal;font-weight:400;font-stretch:normal;font-size:medium;line-height:normal;font-family:sans-serif;text-indent:0;text-align:start;text-decoration:none;text-decoration-line:none;text-decoration-style:solid;text-decoration-color:#000;letter-spacing:normal;word-spacing:normal;text-transform:none;direction:ltr;block-progression:tb;writing-mode:lr-tb;baseline-shift:baseline;text-anchor:start;white-space:normal;clip-rule:nonzero;display:inline;overflow:visible;visibility:visible;opacity:1;isolation:auto;mix-blend-mode:normal;color-interpolation:sRGB;color-interpolation-filters:linearRGB;solid-color:#000;solid-opacity:1;fill:#000;fill-opacity:1;fill-rule:nonzero;stroke:none;stroke-width:25;stroke-linecap:butt;stroke-linejoin:miter;stroke-miterlimit:4;stroke-dasharray:none;stroke-dashoffset:0;stroke-opacity:1;color-rendering:auto;image-rendering:auto;shape-rendering:auto;text-rendering:auto;enable-background:accumulate" d="m3018.6 680.077-.026 35.039-18.059-6.813v330.072l200 41.702 200-41.702V708.303l-17.851 6.718v-34.226l-182.701 63.288-181.364-64.006zm21.178 34.502 148.206 52.096v258.97l-148.206-52.096v-258.97zm321.475 0v258.97l-148.206 52.096v-258.97l148.206-52.096z" transform="translate(0 -680.077)"/><path style="color:#000;font-style:normal;font-variant:normal;font-weight:400;font-stretch:normal;font-size:medium;line-height:normal;font-family:sans-serif;text-indent:0;text-align:start;text-decoration:none;text-decoration-line:none;text-decoration-style:solid;text-decoration-color:#000;letter-spacing:normal;word-spacing:normal;text-transform:none;direction:ltr;block-progression:tb;writing-mode:lr-tb;baseline-shift:baseline;text-anchor:start;white-space:normal;clip-rule:nonzero;display:inline;overflow:visible;visibility:visible;opacity:1;isolation:auto;mix-blend-mode:normal;color-interpolation:sRGB;color-interpolation-filters:linearRGB;solid-color:#000;solid-opacity:1;fill:#000;fill-opacity:1;fill-rule:nonzero;stroke:none;stroke-width:25;stroke-linecap:butt;stroke-linejoin:miter;stroke-miterlimit:4;stroke-dasharray:none;stroke-dashoffset:0;stroke-opacity:1;color-rendering:auto;image-rendering:auto;shape-rendering:auto;text-rendering:auto;enable-background:accumulate" d="M3800.144 680.077c-54.47 0-98.894 44.424-98.894 98.895 0 54.47 44.424 98.896 98.894 98.896 54.47 0 98.897-44.426 98.897-98.896 0-54.471-44.426-98.895-98.897-98.895zm0 25c40.96 0 73.897 32.935 73.897 73.895 0 40.96-32.937 73.896-73.897 73.896-40.959 0-73.894-32.937-73.894-73.896 0-40.96 32.935-73.895 73.894-73.895zm-.01 188.633c-87.751.022-157.895 78.536-158.273 173.816l-.05 12.551h316.665l-.05-12.55c-.379-95.287-70.53-173.804-158.288-173.817zm0 25h.01c69.069.014 126.682 59.25 132.672 136.367h-265.34c5.99-77.11 63.597-136.344 132.659-136.367z" transform="translate(0 -680.077)"/><path style="color:#000;font-style:normal;font-variant:normal;font-weight:400;font-stretch:normal;font-size:medium;line-height:normal;font-family:sans-serif;text-indent:0;text-align:start;text-decoration:none;text-decoration-line:none;text-decoration-style:solid;text-decoration-color:#000;letter-spacing:normal;word-spacing:normal;text-transform:none;direction:ltr;block-progression:tb;writing-mode:lr-tb;baseline-shift:baseline;text-anchor:start;white-space:normal;clip-rule:nonzero;display:inline;overflow:visible;visibility:visible;opacity:1;isolation:auto;mix-blend-mode:normal;color-interpolation:sRGB;color-interpolation-filters:linearRGB;solid-color:#000;solid-opacity:1;fill:#000;fill-opacity:1;fill-rule:nonzero;stroke:none;stroke-width:25;stroke-linecap:butt;stroke-linejoin:miter;stroke-miterlimit:4;stroke-dasharray:none;stroke-dashoffset:0;stroke-opacity:1;color-rendering:auto;image-rendering:auto;shape-rendering:auto;text-rendering:auto;enable-background:accumulate" d="M4451.801 680.434c-51.065 0-92.712 44.424-92.712 98.895 0 54.47 41.647 98.896 92.712 98.896 51.066 0 92.717-44.426 92.717-98.896s-41.65-98.895-92.717-98.895zm0 25c38.4 0 69.28 32.935 69.28 73.895 0 40.96-30.88 73.896-69.28 73.896-38.399 0-69.275-32.937-69.275-73.896 0-40.96 30.876-73.895 69.275-73.895zM4331.63 726.37c-45.202 0-82.067 39.322-82.067 87.537s36.865 87.539 82.067 87.539c24.898 0 42.53-6.884 57.601-25.66-33.623-14.871-52.642-55.322-52.642-96.457 0-18.547 4.832-35.925 13.216-50.785a76.95 76.95 0 0 0-18.175-2.174zm120.162 167.697c-82.268.022-148.027 78.536-148.381 173.816l-.05 12.551h296.876l-.05-12.55c-.354-95.286-66.12-173.804-148.392-173.817zm-121.512 20.955c-5.292.08-9.076.447-9.076.447-72.82.02-120.61 69.518-120.924 153.856l-.043 11.11h80.627l.049-12.552c.237-63.626 23.488-121.284 67.496-151.576-6.035-1.156-12.836-1.364-18.129-1.285zm121.512 4.045h.01c64.751.014 118.765 59.25 124.38 136.367h-248.755c5.615-77.11 59.62-136.343 124.365-136.367z" transform="translate(0 -680.077)"/><path style="opacity:1;fill:#000;fill-opacity:1;stroke:none;stroke-width:25;stroke-miterlimit:4;stroke-dasharray:none;stroke-dashoffset:0;stroke-opacity:1" d="M4799.428 680.077v400h400v-400h-400zm25 25h350v350h-350v-350zm174.556 29.375-74.127 87.92-49.695-41.897-16.115 19.114 49.695 41.896 19.113 16.115 16.116-19.113 74.127-87.922-19.114-16.113zm0 160-74.127 87.92-49.695-41.897-16.115 19.114 49.695 41.896 19.113 16.115 16.116-19.113 74.127-87.922-19.114-16.113z" transform="translate(0 -680.077)"/><path style="color:#000;font-style:normal;font-variant:normal;font-weight:400;font-stretch:normal;font-size:medium;line-height:normal;font-family:sans-serif;text-indent:0;text-align:start;text-decoration:none;text-decoration-line:none;text-decoration-style:solid;text-decoration-color:#000;letter-spacing:normal;word-spacing:normal;text-transform:none;direction:ltr;block-progression:tb;writing-mode:lr-tb;baseline-shift:baseline;text-anchor:start;white-space:normal;clip-rule:nonzero;display:inline;overflow:visible;visibility:visible;opacity:1;isolation:auto;mix-blend-mode:normal;color-interpolation:sRGB;color-interpolation-filters:linearRGB;solid-color:#000;solid-opacity:1;fill:#000;fill-opacity:1;fill-rule:nonzero;stroke:none;stroke-width:25;stroke-linecap:butt;stroke-linejoin:miter;stroke-miterlimit:4;stroke-dasharray:none;stroke-dashoffset:0;stroke-opacity:1;color-rendering:auto;image-rendering:auto;shape-rendering:auto;text-rendering:auto;enable-background:accumulate" d="M167.135 1279.233c-90.996 0-165.049 74.052-165.049 165.049 0 90.996 74.053 165.048 165.049 165.048 39.666 0 76.108-14.076 104.605-37.488l107.393 107.391 18.78-18.78L290.85 1553.39c25.706-29.111 41.333-67.319 41.333-109.11 0-90.996-74.052-165.048-165.048-165.048zm0 26.56c76.642 0 138.489 61.846 138.489 138.489 0 76.642-61.847 138.489-138.49 138.489-76.642 0-138.488-61.847-138.488-138.49 0-76.642 61.846-138.488 138.489-138.488z" transform="translate(0 -680.077)"/><path style="opacity:1;fill:#000;fill-opacity:1;stroke:none;stroke-width:25;stroke-miterlimit:4;stroke-dasharray:none;stroke-dashoffset:0;stroke-opacity:1" d="M787.5 1279.233v187.5H600v25h187.5v187.5h25v-187.5H1000v-25H812.5v-187.5h-25z" transform="translate(0 -680.077)"/><path style="opacity:1;fill:#000;fill-opacity:1;stroke:none;stroke-width:25;stroke-miterlimit:4;stroke-dasharray:none;stroke-dashoffset:0;stroke-opacity:1" d="m1218.162 1279.233-17.39 17.393 182.61 182.607-182.61 182.61 17.39 17.39 182.61-182.609 182.61 182.61 17.39-17.391-182.61-182.61 182.61-182.607-17.39-17.393-182.61 182.61-182.61-182.61z" transform="translate(0 -680.077)"/><path style="opacity:1;fill:#000;fill-opacity:1;stroke:none;stroke-width:1;stroke-miterlimit:4;stroke-dasharray:none;stroke-dashoffset:0;stroke-opacity:1" d="M600 680.077v116h116v-116H600zm141 0v116h116v-116H741zm141 0v116h118v-116H882zm-282 141v116h116v-116H600zm141 0v116h116v-116H741zm141 0v116h118v-116H882zm-282 141v118h116v-118H600zm141 0v118h116v-118H741zm141 0v118h118v-118H882z" transform="translate(0 -680.077)"/><path style="opacity:1;fill:#000;fill-opacity:1;stroke:none;stroke-width:25;stroke-miterlimit:4;stroke-dasharray:none;stroke-dashoffset:0;stroke-opacity:1" d="M1800.857 1279.233v25h83.975v-25h-83.975zm128.975 0v25h271.025v-25h-271.025zm-128.975 131v25h83.975v-25h-83.975zm128.975 0v25h271.025v-25h-271.025zm-128.975 124v25h83.975v-25h-83.975zm128.975 0v25h271.025v-25h-271.025zm-128.975 120v25h83.975v-25h-83.975zm128.975 0v25h271.025v-25h-271.025z" transform="translate(0 -680.077)"/><path style="color:#000;font-style:normal;font-variant:normal;font-weight:400;font-stretch:normal;font-size:medium;line-height:normal;font-family:sans-serif;text-indent:0;text-align:start;text-decoration:none;text-decoration-line:none;text-decoration-style:solid;text-decoration-color:#000;letter-spacing:normal;word-spacing:normal;text-transform:none;direction:ltr;block-progression:tb;writing-mode:lr-tb;baseline-shift:baseline;text-anchor:start;white-space:normal;clip-rule:nonzero;display:inline;overflow:visible;visibility:visible;opacity:1;isolation:auto;mix-blend-mode:normal;color-interpolation:sRGB;color-interpolation-filters:linearRGB;solid-color:#000;solid-opacity:1;fill:#000;fill-opacity:1;fill-rule:nonzero;stroke:none;stroke-width:24.99999809;stroke-linecap:butt;stroke-linejoin:miter;stroke-miterlimit:4;stroke-dasharray:none;stroke-dashoffset:0;stroke-opacity:1;color-rendering:auto;image-rendering:auto;shape-rendering:auto;text-rendering:auto;enable-background:accumulate" d="M2599.453 1279.233c-110.309 0-200 89.691-200 200 0 110.31 89.691 200 200 200s200-89.69 200-200c0-110.309-89.691-200-200-200zm0 25c96.798 0 175 78.202 175 175s-78.202 175-175 175-175-78.202-175-175 78.202-175 175-175zm-.713 40.203c-24.487 0-47.963 5.885-70.43 17.653l10.52 24.07c11.53-5.824 21.753-9.806 30.668-11.945 8.915-2.259 18.068-3.389 27.459-3.389 14.62 0 25.795 3.328 33.522 9.984 7.845 6.538 11.767 15.87 11.767 27.995 0 9.747-2.14 18.068-6.42 24.963-4.16 6.894-14.322 17.175-30.488 30.845-11.65 9.985-19.613 19.496-23.893 28.53-4.279 8.915-6.42 20.326-6.42 34.234v9.627h23.002v-5.883c0-11.292 1.902-20.328 5.705-27.103 3.923-6.776 11.887-15.274 23.893-25.497 14.977-13.075 24.725-22.525 29.242-28.35 4.517-5.943 7.904-12.184 10.162-18.722 2.378-6.657 3.567-14.323 3.567-23 0-20.326-6.3-36.078-18.9-47.252-12.6-11.174-30.252-16.76-52.956-16.76zm-23.787 213.905v57.254h25v-57.254h-25z" transform="translate(0 -680.077)"/><path style="color:#000;font-style:normal;font-variant:normal;font-weight:400;font-stretch:normal;font-size:medium;line-height:normal;font-family:sans-serif;text-indent:0;text-align:start;text-decoration:none;text-decoration-line:none;text-decoration-style:solid;text-decoration-color:#000;letter-spacing:normal;word-spacing:normal;text-transform:none;direction:ltr;block-progression:tb;writing-mode:lr-tb;baseline-shift:baseline;text-anchor:start;white-space:normal;clip-rule:nonzero;display:inline;overflow:visible;visibility:visible;opacity:1;isolation:auto;mix-blend-mode:normal;color-interpolation:sRGB;color-interpolation-filters:linearRGB;solid-color:#000;solid-opacity:1;fill:#000;fill-opacity:1;fill-rule:nonzero;stroke:none;stroke-width:24.99999809;stroke-linecap:butt;stroke-linejoin:miter;stroke-miterlimit:4;stroke-dasharray:none;stroke-dashoffset:0;stroke-opacity:1;color-rendering:auto;image-rendering:auto;shape-rendering:auto;text-rendering:auto;enable-background:accumulate" d="M3200.515 1279.233c-110.309 0-200 89.691-200 200 0 110.31 89.691 200 200 200s200-89.69 200-200c0-110.309-89.691-200-200-200zm0 25c96.798 0 175 78.202 175 175s-78.202 175-175 175-175-78.202-175-175 78.202-175 175-175zm-12.5 38.639v184.787h25v-184.787h-25zm0 215.469v57.254h25v-57.254h-25z" transform="translate(0 -680.077)"/><path style="color:#000;font-style:normal;font-variant:normal;font-weight:400;font-stretch:normal;font-size:medium;line-height:normal;font-family:sans-serif;text-indent:0;text-align:start;text-decoration:none;text-decoration-line:none;text-decoration-style:solid;text-decoration-color:#000;letter-spacing:normal;word-spacing:normal;text-transform:none;direction:ltr;block-progression:tb;writing-mode:lr-tb;baseline-shift:baseline;text-anchor:start;white-space:normal;clip-rule:nonzero;display:inline;overflow:visible;visibility:visible;opacity:1;isolation:auto;mix-blend-mode:normal;color-interpolation:sRGB;color-interpolation-filters:linearRGB;solid-color:#000;solid-opacity:1;fill:#000;fill-opacity:1;fill-rule:nonzero;stroke:none;stroke-width:25;stroke-linecap:butt;stroke-linejoin:miter;stroke-miterlimit:4;stroke-dasharray:none;stroke-dashoffset:0;stroke-opacity:1;color-rendering:auto;image-rendering:auto;shape-rendering:auto;text-rendering:auto;enable-background:accumulate" d="M3767.166 1279.233c-58.393 0-105.793 47.501-105.793 106.02v46.734h-61.23v247.246h400v-247.246h-61.23v-46.734c0-58.519-47.402-106.02-105.795-106.02h-65.952zm0 25.053h65.952c44.975 0 80.795 35.894 80.795 80.967v46.734h-227.54v-46.734c0-45.073 35.818-80.967 80.793-80.967zm-142.023 152.754h350v197.139h-350v-197.14zm162.5 51.375v89.58h25v-89.58h-25z" transform="translate(0 -680.077)"/><path style="opacity:1;fill:#000;fill-opacity:1;stroke:none;stroke-width:25;stroke-miterlimit:4;stroke-dasharray:none;stroke-dashoffset:0;stroke-opacity:1" d="M5174.428 1279.233v400h25v-400h-25zm-120 114.286v285.714h25V1393.52h-25zm-124 111.43v174.284h25v-174.285h-25zm-131 82.857v91.427h25v-91.427h-25z" transform="translate(0 -680.077)"/><path style="color:#000;font-style:normal;font-variant:normal;font-weight:400;font-stretch:normal;font-size:medium;line-height:normal;font-family:sans-serif;text-indent:0;text-align:start;text-decoration:none;text-decoration-line:none;text-decoration-style:solid;text-decoration-color:#000;letter-spacing:normal;word-spacing:normal;text-transform:none;direction:ltr;block-progression:tb;writing-mode:lr-tb;baseline-shift:baseline;text-anchor:start;white-space:normal;clip-rule:nonzero;display:inline;overflow:visible;visibility:visible;opacity:1;isolation:auto;mix-blend-mode:normal;color-interpolation:sRGB;color-interpolation-filters:linearRGB;solid-color:#000;solid-opacity:1;fill:#000;fill-opacity:1;fill-rule:nonzero;stroke:none;stroke-width:24.99999809;stroke-linecap:butt;stroke-linejoin:miter;stroke-miterlimit:4;stroke-dasharray:none;stroke-dashoffset:0;stroke-opacity:1;color-rendering:auto;image-rendering:auto;shape-rendering:auto;text-rendering:auto;enable-background:accumulate" d="M3200.515 2480.167c-110.309 0-200 89.691-200 200 0 110.31 89.691 200 200 200s200-89.69 200-200c0-110.309-89.691-200-200-200zm0 25c19.914 0 39.037 3.318 56.858 9.418 6.212 52.139-16.33 52.923-37.659 95.582-80.308 160.617 107.96 21.635 118.57 42.858 32.165 64.328-42.063 102.051-6.788 143.299-14.562 16.413-32.162 30.065-51.938 40.07-33.294-29.29-56.273-29.343-70.484 18.564-2.836.136-5.688.21-8.559.21-20.936 0-41-3.664-59.594-10.378 32.434-30.37 4.68-128.562-19.779-177.48-13.887-27.774 55.51-106.122 37.143-142.858-3.373-6.745-9.333-9.383-16.916-9.062 18.468-6.612 38.377-10.223 59.146-10.223zm-170.334 134.643c23.159 39.086 82.923 77.53 15.246 117.5-.48.525-.88 1.098-1.24 1.693-11.942-23.68-18.672-50.456-18.672-78.836 0-13.895 1.62-27.404 4.666-40.357z" transform="translate(0 -680.077)"/><path style="fill:#000;fill-rule:evenodd;stroke:none;stroke-width:1" d="M5640.13 1273.021c-1.427 0-2.858.091-4.278.282-28.449.568-56.977-.738-85.379.64-15.225 3.197-24.547 21.554-18.343 35.787.85 5.154 3.73 11.896 3.683 16.346h-29.699v26.264h20.73c-1.372 11.944-14.383 16.996-23.271 22.521-18.747 10.64-37.896 26.024-41.846 48.475-4.119 21.13-.52 42.802-1.756 64.053.335 58.082-.95 116.223.721 174.267 2.645 14.696 17.71 25.202 32.395 23.518 56.032.485 112.071-.076 168.107.271 18.332-.352 36.808.46 55.049-1.133 14.047-3.29 23.745-17.888 22.148-32.093.489-56.68-.093-113.364.287-170.045-.284-18.844.302-37.784-1.177-56.563-4.073-23.158-22.82-40.444-42.854-50.902-9.122-5.222-21.047-10.809-23.033-22.37h1.555c1.711.221 3.515.217 5.3 0h13.514v-12.486c.026-.455.026-.903 0-1.343v-12.434h-29.86c3.05-12.608 9.957-26.875 2.804-39.367-5.01-8.964-14.814-13.67-24.797-13.688zm-1.414 25.444c1.756-.03 3.327.248 3.939 1.64-.437 4.952-2.93 9.537-3.828 14.393-1.612 3.494-.224 8.928-3.031 11.578h-73.37c-1.928-9.058-5.904-18.34-6.072-27.33 2.032-.534 4.192-.06 6.262-.12 23.68.402 47.388-.046 71.055.034 1.346.167 3.288-.167 5.045-.195zm-86.124 53.875h93.78c-.098 17.103 12.36 31.426 26.82 39.101 14.819 9.148 33.86 17.575 38.649 36.035 2.05 4.763.707 7.4-4.914 5.9-73.801-.034-147.753.07-221.46-.052 1.45-15.718 14.512-28.051 28.192-34.865 15.225-8.697 33.336-18.737 37.387-37.348 1.1-2.635-.02-7.167 1.547-8.772zm-19.16 107.01c15.303 6.164 23.826 21.796 36.407 31.751 6.724-4.811 14.573-8.054 22.726-9.455 14.426-3.261 28.74 2.023 41.63 8.075 12.234-9.75 18.602-18.49 29.07-26.465 6.322-6.08 17.224-3.392 17.294 5.17-8.373 14.883-21.495 24.055-33.394 35.678 8.68 12.17 12.334 28.101 8.732 42.718-.316 7.517-7.456 12.285-8.365 19.516 8.383 12.255 19.492 20.69 28.644 31.54 7.661 4.385 3.616 17.66-5.103 17.388-15.207-8.352-23.919-24.396-38.219-33.903-1.82 5.385-.09 13.584-.252 20.143 1.443 6.56-3.598 13.109-10.209 13.705-13.197-.71-26.47.156-39.693-.35-7.62.473-10.616-8.074-10.11-14.355-.02-5.215 3.092-13.511-3.455-15.963-12.942 6.247-21.27 17.929-35.355 27.348-4.902 6.848-16.715 1.216-15.998-6.684 10.446-16.33 27.843-26.054 41.055-39.783-15.792-15.934-15.504-43.397-1.955-60.62-8.062-10.46-18.707-18.475-27.596-28.17-7.483-3.919-4.267-17.15 4.146-17.285zm70.95 39.373a30.756 30.756 0 0 0-2.291.023c-15.074-.051-29.617 10.036-34.999 24.357-6.06 13.123.286 29.24 12.417 36.399 6.588 1.892 11.371 7.989 11.96 14.795 1.45 6.993-3.155 14.615.663 21.001 6.61 2.461 14.884 2.81 21.822.473 2.111-7.184-.885-15.655.187-23.418 2.234-11.449 16.497-13.665 21.649-23.078 11.328-21.717-7.862-49.886-31.408-50.553zm-15.229 22.554c4.9-.116 8.084 4.755 9.035 9.024 2.122 6.836-2.377 17.447-10.744 15.756-11.949-2.715-10.857-24.052 1.709-24.78zm27.969.012c4.472.217 7.371 4.33 8.32 8.49 2.4 6.9-1.792 17.736-10.351 16.3-11.977-2.363-11.176-23.609 1.115-24.78.312-.021.618-.024.916-.01zm-131.485 123.78c21.937 1.1 43.921-.248 65.88.308h161.529c-.072 4.725 2.44 13.338-4.307 14.186-15.285 1.543-30.611-.364-45.957.435-58.274-.192-116.582.684-174.834-.506-4.207-3.004-2.864-10.565-2.31-14.423z" transform="translate(0 -680.077)"/><path style="opacity:1;fill:#000;fill-opacity:1;stroke:none;stroke-width:25;stroke-miterlimit:4;stroke-dasharray:none;stroke-dashoffset:0;stroke-opacity:1" d="M2636.883 1930.198v40h-186v49.691h-51.43v211.309h400v-301h-137.57zm25 25h112.57v251h-50v-185.42h-.162v-.889h-248.408v-24.691l186 .945z" transform="translate(0 -680.077)"/><path style="opacity:1;fill:#000;fill-opacity:1;stroke:none;stroke-width:3;stroke-miterlimit:4;stroke-dasharray:12,6;stroke-dashoffset:0;stroke-opacity:1" d="M106.785 1880.698v56.142H0v25h46.785v318.858h305V1961.84H400v-25H291.785v-56.142zm25 25h135v31.142h-135zm-60 56.142h35v266.785h25V1961.84h55v266.785h25V1961.84h55v266.785h25V1961.84h35v293.858h-255z" transform="translate(0 -680.077)"/><path style="opacity:1;fill:#000;fill-opacity:1;stroke:none;stroke-width:25;stroke-miterlimit:4;stroke-dasharray:none;stroke-dashoffset:0;stroke-opacity:1" d="M600 1880.698v400h400v-400H600zm25 25h162.5v350H625v-350zm187.5 0H975v98.5H812.5v-98.5zm-106.022 19.33-72.72 72.72 17.392 17.391 42.828-42.83v266.336h25V1972.31l42.83 42.83 17.391-17.39-72.72-72.721zm106.022 104.17H975v107H812.5v-107zm0 132H975v94.5H812.5v-94.5z" transform="translate(0 -680.077)"/><path style="color:#000;font-style:normal;font-variant:normal;font-weight:400;font-stretch:normal;font-size:medium;line-height:normal;font-family:sans-serif;text-indent:0;text-align:start;text-decoration:none;text-decoration-line:none;text-decoration-style:solid;text-decoration-color:#000;letter-spacing:normal;word-spacing:normal;text-transform:none;direction:ltr;block-progression:tb;writing-mode:lr-tb;baseline-shift:baseline;text-anchor:start;white-space:normal;clip-rule:nonzero;display:inline;overflow:visible;visibility:visible;opacity:1;isolation:auto;mix-blend-mode:normal;color-interpolation:sRGB;color-interpolation-filters:linearRGB;solid-color:#000;solid-opacity:1;fill:#000;fill-opacity:1;fill-rule:nonzero;stroke:none;stroke-width:25;stroke-linecap:butt;stroke-linejoin:miter;stroke-miterlimit:4;stroke-dasharray:none;stroke-dashoffset:0;stroke-opacity:1;color-rendering:auto;image-rendering:auto;shape-rendering:auto;text-rendering:auto;enable-background:accumulate" d="M1358.748 1880.698c-54.47 0-98.894 44.424-98.894 98.894 0 54.47 44.424 98.897 98.894 98.897 54.47 0 98.897-44.426 98.897-98.897 0-54.47-44.426-98.894-98.897-98.894zm0 25c40.96 0 73.897 32.935 73.897 73.894 0 40.96-32.937 73.897-73.897 73.897-40.959 0-73.894-32.937-73.894-73.897 0-40.96 32.935-73.894 73.894-73.894zm42.381 175v200h200v-200h-200zm-42.39 13.633c-87.752.022-157.896 78.536-158.274 173.816l-.05 12.55h176.714v-25H1226.08c5.99-77.11 63.596-136.344 132.658-136.366h.01c6.231 0 12.367.49 18.381 1.425v-25.246a145.386 145.386 0 0 0-18.386-1.18zm67.39 11.367h150v27.367l-14.523-12.244-74.127 87.92-49.695-41.897-11.655 13.822v-74.968zm150 36.68v113.32h-150v-65.979l45.235 38.135 19.113 16.115 16.115-19.113 69.537-82.479z" transform="translate(0 -680.077)"/><path style="color:#000;font-style:normal;font-variant:normal;font-weight:400;font-stretch:normal;font-size:medium;line-height:normal;font-family:sans-serif;text-indent:0;text-align:start;text-decoration:none;text-decoration-line:none;text-decoration-style:solid;text-decoration-color:#000;letter-spacing:normal;word-spacing:normal;text-transform:none;direction:ltr;block-progression:tb;writing-mode:lr-tb;baseline-shift:baseline;text-anchor:start;white-space:normal;clip-rule:nonzero;display:inline;overflow:visible;visibility:visible;opacity:1;isolation:auto;mix-blend-mode:normal;color-interpolation:sRGB;color-interpolation-filters:linearRGB;solid-color:#000;solid-opacity:1;fill:#000;fill-opacity:1;fill-rule:nonzero;stroke:none;stroke-width:25;stroke-linecap:butt;stroke-linejoin:miter;stroke-miterlimit:4;stroke-dasharray:none;stroke-dashoffset:0;stroke-opacity:1;color-rendering:auto;image-rendering:auto;shape-rendering:auto;text-rendering:auto;enable-background:accumulate" d="M1907.645 1880.698v54.427H1800.5v239.001h176.715v-25H1825.5v-189h23.994v95h237v-95h24.006v96.572h25v-119.715h-.014v-1.857h-102.842v-54.428h-125zm25 25h75v29.427h-75v-29.427zm-58.15 54.427h187v70h-187v-70zm81 19.88v28.572h25v-28.573h-25zm45.72 100.693v200h200v-200h-200zm25 25h150v27.367l-14.524-12.244-74.127 87.92-49.695-41.897-11.654 13.822v-74.968zm150 36.68v113.32h-150v-65.979l45.234 38.135 19.113 16.115 16.116-19.113 69.537-82.479z" transform="translate(0 -680.077)"/><path style="fill:#000;fill-rule:evenodd;stroke:none;stroke-width:1px;stroke-linecap:butt;stroke-linejoin:miter;stroke-opacity:1" d="M3098.648 1880.723c-11.754.234-24.353 3.672-37.704 11.493-103.624 60.703-84.453 232.334 139.886 388.389v.093l.081-.048.079.048v-.093c221.319-145.954 243.512-327.686 139.888-388.39-84.78-49.664-139.118 77.238-139.967 79.235-.711-1.676-39.375-91.98-102.262-90.727z" transform="translate(0 -680.077)"/><path style="fill:#000;fill-rule:evenodd;stroke:none;stroke-width:1px;stroke-linecap:butt;stroke-linejoin:miter;stroke-opacity:1" d="M3903.083 1880.717c-63.032-1.559-101.827 89.048-102.543 90.733-.712-1.675-39.377-91.98-102.264-90.727-11.754.234-24.353 3.67-37.705 11.492-103.624 60.704-84.452 232.334 139.887 388.389v.094l.08-.049.08.049v-.094c221.318-145.954 243.513-327.685 139.889-388.389-13.247-7.76-25.752-11.209-37.424-11.498zm-203.71 24.23c14.245.23 28.247 6.712 37.993 17.286 33.496 29.883 47.85 74.136 64.32 114.613 9.941-30.189 20.429-60.706 38.399-87.262 13.781-20.143 31.787-40.85 57.326-44.494 30.168-.557 55.991 22.213 68.406 48.397 18.34 40.268 9.795 87-8.058 125.785-33.627 71.518-92.592 127.704-156.86 172.12-20.39-14.818-40.12-30.534-58.808-47.434-41.45-37.974-79.442-81.499-101.996-133.518-9.864-24.012-17.062-50.037-16.215-76.254 1.923-37.416 25.514-74.618 61.318-87.303 4.653-1.393 9.428-2.012 14.176-1.935z" transform="translate(0 -680.077)"/><path style="opacity:1;fill:#000;fill-opacity:1;stroke:none;stroke-width:1;stroke-miterlimit:4;stroke-dasharray:none;stroke-dashoffset:0;stroke-opacity:1" d="M4272.743 1880.697c-66.667 0-72.506.02-72.506.02v399.981h25v-179.997c6.921-.01 3.826-.014 47.506-.014 70.476 0 111.827 17.519 168.494 27.018 56.666 9.5 159-20.999 159-20.999v-219.99s-102.334 30.5-159 21c-56.667-9.5-105.16-27.018-168.494-27.018zm.472 25.81c45.514-.222 89.974 11.879 134.348 21.141 54.893 14.152 112.53 6.112 166.672-7.417v166.407c-14.784 3.756-29.585 7.241-44.568 10.057-38.618 9.3-79.193 8.225-117.725-.95-59.98-18.44-123.26-22.717-185.693-21.278.056-55.94-.19-111.881.096-167.821 15.624.045 31.247-.102 46.87-.14z" transform="translate(0 -680.077)"/><path style="opacity:1;fill:#000;fill-opacity:1;stroke:none;stroke-width:1;stroke-miterlimit:4;stroke-dasharray:none;stroke-dashoffset:0;stroke-opacity:1" d="m5477.833 1947.106-17.678 17.678 18.635 18.634c-50.54 32.083-79.956 77.035-79.606 96.526.574 31.935 80.435 130.953 199.998 132.256 33.188.361 63.325-7.123 89.565-18.826l20.916 20.916 17.678-17.678-249.508-249.506zm121.35.58c-26.817 0-51.575 4.91-73.876 12.895l22.348 22.347c16.195-4.51 32.937-6.999 49.715-7.238 61.712-.617 122.478 30.014 159.832 78.934 5.577 8.593 15.19 17.746 12.262 28.918-13.12 25.912-33.092 47.723-56.801 64.394l19.885 19.885c41.959-30.865 66.425-69.617 66.633-87.877.376-33.1-78.71-132.258-199.998-132.258zm.818 53.49c-.918 0-1.837.014-2.756.047-9.014.08-17.85 1.913-26.133 5.162l23.984 23.985a49.775 49.775 0 0 1 4.149-.172c24.402-.557 46.905 19.218 49.393 43.436a45.52 45.52 0 0 1 .304 10.581l23.856 23.856c7.85-20.861 6.987-45.054-3.893-64.797-13.117-25.249-40.46-42.026-68.904-42.097zm-101.002 2.45 33.922 33.921c-5.08 7.792-8.786 16.47-10.655 25.69-7.773 32.994 8.948 69.507 38.717 85.558 24.707 14.349 56.933 12.787 80.752-2.433l25.54 25.539a202.913 202.913 0 0 1-28.815 8.52c-71.612 14.943-149.424-16.318-194.54-73.528-5.937-9.504-16.628-17.853-15.7-30.123 16.102-30.693 41.164-55.684 70.779-73.144zm55.197 55.197 66.318 66.318a44.965 44.965 0 0 1-8.796 3.074c-23.211 6.41-49.57-6.54-58.375-28.808-5.715-12.928-4.946-27.965.853-40.584z" transform="translate(0 -680.077)"/><path style="opacity:1;fill:#000;fill-opacity:1;stroke:none;stroke-width:1;stroke-miterlimit:4;stroke-dasharray:none;stroke-dashoffset:0;stroke-opacity:1" d="M4999.428 1268.357c-121.29 0-200.572 100.323-199.998 132.258.574 31.936 80.434 130.953 199.998 132.256 119.563 1.303 199.621-99.155 199.998-132.256.376-33.1-78.71-132.258-199.998-132.258zm-1.813 28.004c61.712-.617 122.479 30.014 159.832 78.934 5.578 8.593 15.19 17.746 12.262 28.918-25.452 50.27-76.656 85.151-131.004 96.879-71.612 14.943-149.423-16.318-194.539-73.528-5.938-9.503-16.628-17.853-15.701-30.123 32.246-61.464 100.408-100.099 169.15-101.08zm2.631 25.487c-.917 0-1.836.014-2.756.047-35.324.31-67.97 27.433-74.978 62.013-7.774 32.995 8.948 69.507 38.717 85.559 29.394 17.07 69.436 11.628 93.296-12.553 24.685-23.318 31.027-63.206 14.625-92.969-13.116-25.249-40.46-42.026-68.904-42.097z"/><path d="M142 2480.167v116h116v-116zm0 141v116h116v-116zm0 141v118h116v-118z" style="opacity:1;fill:#000;fill-opacity:1;stroke:none;stroke-width:1;stroke-miterlimit:4;stroke-dasharray:none;stroke-dashoffset:0;stroke-opacity:1" transform="translate(0 -680.077)"/><path style="opacity:1;fill:#000;fill-opacity:1;stroke:none;stroke-width:25;stroke-miterlimit:4;stroke-dasharray:none;stroke-dashoffset:0;stroke-opacity:1" d="M800 2721.617 658.578 2863.04l17.678 17.678L800 2756.973l123.744 123.744 17.678-17.678zm-123.744-242-17.678 17.678L800 2638.717l141.422-141.422-17.678-17.678L800 2603.362z" transform="translate(0 -680.077)"/><path d="M1359.322 2680.167 1217.9 2538.745l-17.678 17.678 123.744 123.744-123.744 123.744 17.678 17.678zm242-123.744-17.678-17.678-141.422 141.422 141.422 141.422 17.678-17.678-123.744-123.744z" style="opacity:1;fill:#000;fill-opacity:1;stroke:none;stroke-width:25;stroke-miterlimit:4;stroke-dasharray:none;stroke-dashoffset:0;stroke-opacity:1" transform="translate(0 -680.077)"/><path style="color:#000;font-style:normal;font-variant:normal;font-weight:400;font-stretch:normal;font-size:medium;line-height:normal;font-family:sans-serif;text-indent:0;text-align:start;text-decoration:none;text-decoration-line:none;text-decoration-style:solid;text-decoration-color:#000;letter-spacing:normal;word-spacing:normal;text-transform:none;direction:ltr;block-progression:tb;writing-mode:lr-tb;baseline-shift:baseline;text-anchor:start;white-space:normal;clip-rule:nonzero;display:inline;overflow:visible;visibility:visible;opacity:1;isolation:auto;mix-blend-mode:normal;color-interpolation:sRGB;color-interpolation-filters:linearRGB;solid-color:#000;solid-opacity:1;fill:#000;fill-opacity:1;fill-rule:nonzero;stroke:none;stroke-width:25;stroke-linecap:butt;stroke-linejoin:miter;stroke-miterlimit:4;stroke-dasharray:none;stroke-dashoffset:0;stroke-opacity:1;color-rendering:auto;image-rendering:auto;shape-rendering:auto;text-rendering:auto;enable-background:accumulate" d="M4367.26 1279.233c-57.078 0-103.643 45.387-105.713 102.084h25.014c2.015-43.207 37.041-77.03 80.7-77.03h65.95c44.976 0 80.796 35.893 80.796 80.966v46.734h-313.77v247.246h400v-247.246h-61.23v-46.734c0-58.519-47.402-106.02-105.795-106.02zm-142.023 177.807h350v197.139h-350zm162.5 51.375v89.58h25v-89.58z" transform="translate(0 -680.077)"/><path style="opacity:1;fill:#000;fill-opacity:1;stroke:none;stroke-width:25;stroke-miterlimit:4;stroke-dasharray:none;stroke-dashoffset:0;stroke-opacity:1" d="m2800.003 2680.167-141.422-141.422-17.678 17.678 123.744 123.744-123.744 123.744 17.678 17.678zm-242-123.744-17.678-17.678-141.422 141.422 141.422 141.422 17.678-17.678-123.744-123.744z" transform="translate(0 -680.077)"/><path d="m2000.858 2880.717 141.421-141.422-17.677-17.678-123.744 123.745-123.745-123.745-17.677 17.678zm123.744-242 17.677-17.678-141.421-141.422-141.422 141.422 17.677 17.678 123.744-123.744z" style="opacity:1;fill:#000;fill-opacity:1;stroke:none;stroke-width:25;stroke-miterlimit:4;stroke-dasharray:none;stroke-dashoffset:0;stroke-opacity:1" transform="translate(0 -680.077)"/><path style="opacity:1;fill:#000;fill-opacity:1;stroke:none;stroke-width:1;stroke-miterlimit:4;stroke-dasharray:none;stroke-dashoffset:0;stroke-opacity:1" d="M3600.143 2480.167v300h68.572v100h26.053l64.637-100h240.738v-300zm25 25h350v250l-226.896.357-54.532 85.491v-60.848h.012l.016-25h-68.6z" transform="translate(0 -680.077)"/><path style="opacity:1;fill:#000;fill-opacity:1;stroke:none;stroke-width:1;stroke-miterlimit:4;stroke-dasharray:none;stroke-dashoffset:0;stroke-opacity:1" d="m4999.428 2570.167 200 220h-400z" transform="translate(0 -680.077)"/><path d="M4200.236 2480.167v300h68.573v100h26.052l64.637-100h240.738v-300h-400z" style="opacity:1;fill:#000;fill-opacity:1;stroke:none;stroke-width:1;stroke-miterlimit:4;stroke-dasharray:none;stroke-dashoffset:0;stroke-opacity:1" transform="translate(0 -680.077)"/><path style="color:#000;font-style:normal;font-variant:normal;font-weight:400;font-stretch:normal;font-size:medium;line-height:normal;font-family:sans-serif;text-indent:0;text-align:start;text-decoration:none;text-decoration-line:none;text-decoration-style:solid;text-decoration-color:#000;letter-spacing:normal;word-spacing:normal;text-transform:none;direction:ltr;block-progression:tb;writing-mode:lr-tb;baseline-shift:baseline;text-anchor:start;white-space:normal;clip-rule:nonzero;display:inline;overflow:visible;visibility:visible;opacity:1;isolation:auto;mix-blend-mode:normal;color-interpolation:sRGB;color-interpolation-filters:linearRGB;solid-color:#000;solid-opacity:1;fill:#000;fill-opacity:1;fill-rule:nonzero;stroke:none;stroke-width:25;stroke-linecap:butt;stroke-linejoin:miter;stroke-miterlimit:4;stroke-dasharray:none;stroke-dashoffset:0;stroke-opacity:1;color-rendering:auto;image-rendering:auto;shape-rendering:auto;text-rendering:auto;enable-background:accumulate" d="m5688.078 1802.125-234.795 234.795-53.282 163.727 164.095-55.09 233.707-233.707zm0 35.355 74.37 74.37-205.686 205.685-73.557-75.182zm-218.283 229.55 62.787 62.786-60.014 20.282-22.45-22.45z"/><path style="color:#000;font-style:normal;font-variant:normal;font-weight:400;font-stretch:normal;font-size:medium;line-height:normal;font-family:sans-serif;text-indent:0;text-align:start;text-decoration:none;text-decoration-line:none;text-decoration-style:solid;text-decoration-color:#000;letter-spacing:normal;word-spacing:normal;text-transform:none;direction:ltr;block-progression:tb;writing-mode:lr-tb;baseline-shift:baseline;text-anchor:start;white-space:normal;clip-rule:nonzero;display:inline;overflow:visible;visibility:visible;opacity:1;isolation:auto;mix-blend-mode:normal;color-interpolation:sRGB;color-interpolation-filters:linearRGB;solid-color:#000;solid-opacity:1;fill:#000;fill-opacity:1;fill-rule:nonzero;stroke:none;stroke-width:25;stroke-linecap:butt;stroke-linejoin:miter;stroke-miterlimit:4;stroke-dasharray:none;stroke-dashoffset:0;stroke-opacity:1;color-rendering:auto;image-rendering:auto;shape-rendering:auto;text-rendering:auto;enable-background:accumulate" d="M187.143 2401.713c-33.222 0-60.358 27.136-60.358 60.357 0 33.222 27.136 60.356 60.358 60.356h28.572c33.221 0 60.357-27.134 60.357-60.356 0-33.221-27.136-60.357-60.357-60.357h-28.572zm0 25h28.572c19.804 0 35.357 15.553 35.357 35.357s-15.553 35.356-35.357 35.356h-28.572c-19.804 0-35.358-15.552-35.358-35.356 0-19.804 15.554-35.357 35.358-35.357zm-108.702 85.8-17.677 17.678 41.347 41.35c-7.867 11.601-12.468 25.583-12.468 40.611v33.131H38.389v25h51.254v33.131c0 14.29 4.177 27.623 11.35 38.873l-40.23 40.229 17.678 17.677 39.414-39.414c12.283 9.526 27.676 15.219 44.372 15.219h78.404c18.311 0 35.058-6.846 47.848-18.092l42.287 42.287 17.677-17.677-44.203-44.203a72.075 72.075 0 0 0 8.975-34.899v-33.13h51.064v-25h-51.064v-33.132c0-13.384-3.664-25.929-10.02-36.71l45.248-45.25-17.677-17.678-43.817 43.818c-12.581-10.46-28.733-16.764-46.318-16.764h-78.404c-15.965 0-30.741 5.205-42.745 13.989l-41.04-41.043zm83.786 52.055h26.7v186.43h-26.7c-26.578 0-47.584-21.007-47.584-47.584v-91.262c0-26.577 21.006-47.584 47.584-47.584zm51.7 0h26.704c26.577 0 47.584 21.007 47.584 47.584v91.262c0 26.577-21.007 47.584-47.584 47.584h-26.703v-186.43z"/><path style="color:#000;font-style:normal;font-variant:normal;font-weight:400;font-stretch:normal;font-size:medium;line-height:normal;font-family:sans-serif;text-indent:0;text-align:start;text-decoration:none;text-decoration-line:none;text-decoration-style:solid;text-decoration-color:#000;letter-spacing:normal;word-spacing:normal;text-transform:none;direction:ltr;block-progression:tb;writing-mode:lr-tb;baseline-shift:baseline;text-anchor:start;white-space:normal;clip-rule:nonzero;display:inline;overflow:visible;visibility:visible;opacity:1;isolation:auto;mix-blend-mode:normal;color-interpolation:sRGB;color-interpolation-filters:linearRGB;solid-color:#000;solid-opacity:1;fill:#000;fill-opacity:1;fill-rule:evenodd;stroke:none;stroke-width:25;stroke-linecap:butt;stroke-linejoin:miter;stroke-miterlimit:4;stroke-dasharray:none;stroke-dashoffset:0;stroke-opacity:1;color-rendering:auto;image-rendering:auto;shape-rendering:auto;text-rendering:auto;enable-background:accumulate" d="M981.158 3172.738 799.104 3354l-180.157-180.28-17.683 17.672 197.795 197.93 199.738-198.867-17.639-17.717z" transform="translate(0 -680.077)"/><path d="m1581.9 3389.322-182.055-181.262-180.156 180.28-17.684-17.672 197.795-197.93 199.738 198.867-17.638 17.717z" style="color:#000;font-style:normal;font-variant:normal;font-weight:400;font-stretch:normal;font-size:medium;line-height:normal;font-family:sans-serif;text-indent:0;text-align:start;text-decoration:none;text-decoration-line:none;text-decoration-style:solid;text-decoration-color:#000;letter-spacing:normal;word-spacing:normal;text-transform:none;direction:ltr;block-progression:tb;writing-mode:lr-tb;baseline-shift:baseline;text-anchor:start;white-space:normal;clip-rule:nonzero;display:inline;overflow:visible;visibility:visible;opacity:1;isolation:auto;mix-blend-mode:normal;color-interpolation:sRGB;color-interpolation-filters:linearRGB;solid-color:#000;solid-opacity:1;fill:#000;fill-opacity:1;fill-rule:evenodd;stroke:none;stroke-width:25;stroke-linecap:butt;stroke-linejoin:miter;stroke-miterlimit:4;stroke-dasharray:none;stroke-dashoffset:0;stroke-opacity:1;color-rendering:auto;image-rendering:auto;shape-rendering:auto;text-rendering:auto;enable-background:accumulate" transform="translate(0 -680.077)"/><path style="color:#000;font-style:normal;font-variant:normal;font-weight:400;font-stretch:normal;font-size:medium;line-height:normal;font-family:sans-serif;text-indent:0;text-align:start;text-decoration:none;text-decoration-line:none;text-decoration-style:solid;text-decoration-color:#000;letter-spacing:normal;word-spacing:normal;text-transform:none;direction:ltr;block-progression:tb;writing-mode:lr-tb;baseline-shift:baseline;text-anchor:start;white-space:normal;clip-rule:nonzero;display:inline;overflow:visible;visibility:visible;opacity:1;isolation:auto;mix-blend-mode:normal;color-interpolation:sRGB;color-interpolation-filters:linearRGB;solid-color:#000;solid-opacity:1;fill:#000;fill-opacity:1;fill-rule:evenodd;stroke:none;stroke-width:25;stroke-linecap:butt;stroke-linejoin:miter;stroke-miterlimit:4;stroke-dasharray:none;stroke-dashoffset:0;stroke-opacity:1;color-rendering:auto;image-rendering:auto;shape-rendering:auto;text-rendering:auto;enable-background:accumulate" d="m1892.565 3462.158 181.262-182.055-180.28-180.156 17.673-17.684 197.93 197.795-198.868 199.738-17.717-17.638z" transform="translate(0 -680.077)"/><path d="m2707.745 3462.158-181.262-182.055 180.28-180.156-17.672-17.684-197.93 197.795 198.867 199.738 17.717-17.638z" style="color:#000;font-style:normal;font-variant:normal;font-weight:400;font-stretch:normal;font-size:medium;line-height:normal;font-family:sans-serif;text-indent:0;text-align:start;text-decoration:none;text-decoration-line:none;text-decoration-style:solid;text-decoration-color:#000;letter-spacing:normal;word-spacing:normal;text-transform:none;direction:ltr;block-progression:tb;writing-mode:lr-tb;baseline-shift:baseline;text-anchor:start;white-space:normal;clip-rule:nonzero;display:inline;overflow:visible;visibility:visible;opacity:1;isolation:auto;mix-blend-mode:normal;color-interpolation:sRGB;color-interpolation-filters:linearRGB;solid-color:#000;solid-opacity:1;fill:#000;fill-opacity:1;fill-rule:evenodd;stroke:none;stroke-width:25;stroke-linecap:butt;stroke-linejoin:miter;stroke-miterlimit:4;stroke-dasharray:none;stroke-dashoffset:0;stroke-opacity:1;color-rendering:auto;image-rendering:auto;shape-rendering:auto;text-rendering:auto;enable-background:accumulate" transform="translate(0 -680.077)"/><path style="opacity:1;fill:#000;fill-opacity:1;stroke:none;stroke-width:25;stroke-miterlimit:4;stroke-dasharray:none;stroke-dashoffset:0;stroke-opacity:1" d="M3079 3081.147v50.428h-54v-.043h-25v349.756h285v-91.57h-25v66.57h-235v-251.713h235v112.142h25v-185.185h-25v.043h-54v-50.428h-127zm25 25h77v37.672h.125v12.756H3260v23h-235v-23h79v-50.428zm-53.545 128.68v25h183.14v-25h-183.14zm153.748 47.68-53.033 53.033-17.678 17.677 17.678 17.678 53.033 53.033 17.678-17.677-40.533-40.534H3400v-25h-218.652l40.533-40.533-17.678-17.677zm-153.748 10.32v25h89.096v-25h-89.096zm0 58v25h58.69v-25h-58.69zm0 56v25h101.115v-25h-101.115z" transform="translate(0 -680.077)"/><path style="opacity:1;fill:#000;fill-opacity:1;stroke:none;stroke-width:1;stroke-miterlimit:4;stroke-dasharray:none;stroke-dashoffset:0;stroke-opacity:1" d="M3647.643 2539.908v261.233h305v-400H3786.56zm152.918-113.767h127.082v350h-255v-222.233h127.918z"/><path style="opacity:1;fill:#000;fill-opacity:1;stroke:none;stroke-width:1;stroke-miterlimit:4;stroke-dasharray:none;stroke-dashoffset:0;stroke-opacity:1" d="m4386.654 2401.14-138.918 138.768v261.233h305v-400h-166.082zm14 25h127.082v350h-255v-222.232h127.918v-127.767zm-60.597 178.29v25h158.69v-25h-158.69zm69.593 58v25h89.096v-25h-89.096zm-94.045 58v25h183.141v-25h-183.14z"/><path d="m4999.428 3391.217 200-220h-400z" style="opacity:1;fill:#000;fill-opacity:1;stroke:none;stroke-width:1;stroke-miterlimit:4;stroke-dasharray:none;stroke-dashoffset:0;stroke-opacity:1" transform="translate(0 -680.077)"/><path d="M5398.902 3081.217v400h400v-400zm25 25h350v350h-350zm306.557 63.375-174.127 187.92-89.696-81.896-16.115 19.113 108.809 98.012 190.242-207.035z" style="opacity:1;fill:#000;fill-opacity:1;stroke:none;stroke-width:25;stroke-miterlimit:4;stroke-dasharray:none;stroke-dashoffset:0;stroke-opacity:1" transform="translate(0 -680.077)"/><path style="opacity:1;fill:#000;fill-opacity:1;stroke:none;stroke-width:1;stroke-miterlimit:4;stroke-dasharray:none;stroke-dashoffset:0;stroke-opacity:1" d="M125.834 3712.99v50.145H1.334v286h400v-286h-124.5v-50.144h-150zm25 25h101v25.145h-101zm-124.5 50.145h31.5v100h287v-100h31.5v236h-350zm56.5 0h237v75h-237zm106 25.506v25h25v-25z" transform="translate(0 -680.077)"/><path style="opacity:1;fill:#000;fill-opacity:1;stroke:none;stroke-width:25;stroke-miterlimit:4;stroke-dasharray:none;stroke-dashoffset:0;stroke-opacity:1" d="M600.031 3000.986v400h400V3089.58l-88.593-88.594H625.03zm90.987 26.899h218.025v133.865H691.018zM841 3047.64v86h43v-86z"/><path style="opacity:1;fill:#000;fill-opacity:1;stroke:none;stroke-width:1;stroke-miterlimit:4;stroke-dasharray:none;stroke-dashoffset:0;stroke-opacity:1" d="m1510.93 3727.221-17.678 17.678 59.664 59.664h-352.144v25h352.144l-59.664 59.664 17.678 17.678 89.842-89.842zm-220.316 128-89.842 89.842 89.842 89.842 17.677-17.678-59.664-59.664h352.145v-25h-352.145l59.664-59.664z" transform="translate(0 -680.077)"/><path style="color:#000;font-style:normal;font-variant:normal;font-weight:400;font-stretch:normal;font-size:medium;line-height:normal;font-family:sans-serif;text-indent:0;text-align:start;text-decoration:none;text-decoration-line:none;text-decoration-style:solid;text-decoration-color:#000;letter-spacing:normal;word-spacing:normal;text-transform:none;direction:ltr;block-progression:tb;writing-mode:lr-tb;baseline-shift:baseline;text-anchor:start;white-space:normal;clip-rule:nonzero;display:inline;overflow:visible;visibility:visible;opacity:1;isolation:auto;mix-blend-mode:normal;color-interpolation:sRGB;color-interpolation-filters:linearRGB;solid-color:#000;solid-opacity:1;fill:#000;fill-opacity:1;fill-rule:nonzero;stroke:none;stroke-width:25.00000191;stroke-linecap:butt;stroke-linejoin:miter;stroke-miterlimit:4;stroke-dasharray:none;stroke-dashoffset:0;stroke-opacity:1;color-rendering:auto;image-rendering:auto;shape-rendering:auto;text-rendering:auto;enable-background:accumulate" d="M1999.84 3681.063c-91.219 0-167.767 64.836-174.719 149.178h23.467c7.012-68.737 71.09-124.115 151.252-124.115 71.413 0 130.06 43.951 146.969 102.142l-59.924-17.248-6.04 24.207 94.651 27.244 25.361-101.674-22.535-6.486-13.441 53.887c-24.383-62.91-89.706-107.135-165.041-107.135zm-173.621 238.592-25.362 101.674 22.536 6.486 13.441-53.887c24.383 62.91 89.706 107.135 165.041 107.135 91.219 0 167.767-64.836 174.719-149.178h-23.467c-7.012 68.737-71.09 124.116-151.252 124.116-71.413 0-130.06-43.952-146.969-102.143l59.924 17.248 6.04-24.207-94.651-27.244z" transform="translate(0 -680.077)"/><path style="opacity:1;fill:#000;fill-opacity:1;stroke:none;stroke-width:1;stroke-miterlimit:4;stroke-dasharray:none;stroke-dashoffset:0;stroke-opacity:1" d="m2399.453 3710.41 162.5 178.75v92.555l75 70v-162.554l162.5-178.75h-400z" transform="translate(0 -680.077)"/><path style="opacity:1;fill:#000;fill-opacity:1;stroke:none;stroke-width:1;stroke-miterlimit:4;stroke-dasharray:none;stroke-dashoffset:0;stroke-opacity:1" d="m3000 3710.41 162.5 178.75v92.556l75 70V3889.16l162.5-178.75h-400zm54.266 24h291.476L3213.5 3879.88v116.59l-25.854-24.137.16-91.926-133.54-145.996z" transform="translate(0 -680.077)"/><path style="color:#000;font-style:normal;font-variant:normal;font-weight:400;font-stretch:normal;font-size:medium;line-height:normal;font-family:sans-serif;text-indent:0;text-align:start;text-decoration:none;text-decoration-line:none;text-decoration-style:solid;text-decoration-color:#000;letter-spacing:normal;word-spacing:normal;text-transform:none;direction:ltr;block-progression:tb;writing-mode:lr-tb;baseline-shift:baseline;text-anchor:start;white-space:normal;clip-rule:nonzero;display:inline;overflow:visible;visibility:visible;opacity:1;isolation:auto;mix-blend-mode:normal;color-interpolation:sRGB;color-interpolation-filters:linearRGB;solid-color:#000;solid-opacity:1;fill:#000;fill-opacity:1;fill-rule:nonzero;stroke:none;stroke-width:24.99999809;stroke-linecap:butt;stroke-linejoin:miter;stroke-miterlimit:4;stroke-dasharray:none;stroke-dashoffset:0;stroke-opacity:1;color-rendering:auto;image-rendering:auto;shape-rendering:auto;text-rendering:auto;enable-background:accumulate" d="M3800.143 3000.986c-110.31 0-200 89.691-200 200 0 110.31 89.69 200 200 200 110.309 0 200-89.69 200-200 0-110.309-89.691-200-200-200zm0 25c96.798 0 175 78.202 175 175s-78.202 175-175 175-175-78.202-175-175 78.202-175 175-175zm-92.479 64.844-17.678 17.678 92.479 92.478-92.479 92.479 17.678 17.678 92.479-92.479 92.478 92.479 17.678-17.678-92.479-92.479 92.479-92.478-17.678-17.678-92.478 92.479z"/><path style="opacity:1;fill:#000;fill-opacity:1;stroke:none;stroke-width:25;stroke-miterlimit:4;stroke-dasharray:none;stroke-dashoffset:0;stroke-opacity:1" d="M4574.032 3681.063c-1.401.296-58.589 13.196-119.521 33.27-31.135 10.258-63.707 22.604-91.675 36.844-27.968 14.24-51.528 29.753-64.726 50.077-24.149 37.188-29.124 88.272-29.22 130.21-.078 33.228 3.3 60.853 4.72 71.02l-73.374 78.58 36.716-.114 57.426-61.857c12.415 1.705 35.06 4.29 60.942 4.637 38.882.521 84.845-2.838 115.578-26.189 16.182-12.295 30.478-34.077 45.004-60.365 14.527-26.287 28.647-57.071 41.111-86.545 24.928-58.95 43.223-112.786 43.223-112.786l-22.875-9.025s-18.045 53.059-42.517 110.93a1274.464 1274.464 0 0 1-13.77 31.409h-67.513v26.242h55.092c-4.528 9.186-9.107 18.07-13.685 26.353a395.464 395.464 0 0 1-3.186 5.644h-83.794v26.242h67.06c-6.783 9.415-13.078 16.57-18.192 20.457-21.51 16.342-64.36 21.888-101.231 21.393-15.755-.211-28.86-1.146-39.17-2.181l274.076-295.23zm-33.341 35.388-245.234 262.635c-1.15-11.425-2.253-27.311-2.206-47.556.09-39.462 6.038-86.306 24.822-115.234 3.64-5.605 9.682-11.706 17.54-17.92v78.474h24.362v-94.746a285.97 285.97 0 0 1 13.272-7.203 416.61 416.61 0 0 1 16.435-7.89v54.288h24.362v-64.65c15.577-6.222 31.75-12 47.593-17.22 29.503-9.72 57.73-17.509 79.054-22.978z" transform="translate(0 -680.077)"/><path style="color:#000;font-style:normal;font-variant:normal;font-weight:400;font-stretch:normal;font-size:medium;line-height:normal;font-family:sans-serif;text-indent:0;text-align:start;text-decoration:none;text-decoration-line:none;text-decoration-style:solid;text-decoration-color:#000;letter-spacing:normal;word-spacing:normal;text-transform:none;direction:ltr;block-progression:tb;writing-mode:lr-tb;baseline-shift:baseline;text-anchor:start;white-space:normal;clip-rule:nonzero;display:inline;overflow:visible;visibility:visible;opacity:1;isolation:auto;mix-blend-mode:normal;color-interpolation:sRGB;color-interpolation-filters:linearRGB;solid-color:#000;solid-opacity:1;fill:#000;fill-opacity:1;fill-rule:evenodd;stroke:none;stroke-width:25;stroke-linecap:butt;stroke-linejoin:miter;stroke-miterlimit:4;stroke-dasharray:none;stroke-dashoffset:0;stroke-opacity:1;color-rendering:auto;image-rendering:auto;shape-rendering:auto;text-rendering:auto;enable-background:accumulate" d="m4998.457 3722.33-197.795 197.93 17.684 17.671 180.156-180.279 182.055 181.262 17.638-17.717-199.738-198.867zm-199.03 292.466v25h400v-25h-400z" transform="translate(0 -680.077)"/><path style="color:#000;font-style:normal;font-variant:normal;font-weight:400;font-stretch:normal;font-size:medium;line-height:normal;font-family:sans-serif;text-indent:0;text-align:start;text-decoration:none;text-decoration-line:none;text-decoration-style:solid;text-decoration-color:#000;letter-spacing:normal;word-spacing:normal;text-transform:none;direction:ltr;block-progression:tb;writing-mode:lr-tb;baseline-shift:baseline;text-anchor:start;white-space:normal;clip-rule:nonzero;display:inline;overflow:visible;visibility:visible;opacity:1;isolation:auto;mix-blend-mode:normal;color-interpolation:sRGB;color-interpolation-filters:linearRGB;solid-color:#000;solid-opacity:1;fill:#000;fill-opacity:1;fill-rule:evenodd;stroke:none;stroke-width:25;stroke-linecap:butt;stroke-linejoin:miter;stroke-miterlimit:4;stroke-dasharray:none;stroke-dashoffset:0;stroke-opacity:1;color-rendering:auto;image-rendering:auto;shape-rendering:auto;text-rendering:auto;enable-background:accumulate" d="m5597.931 3681.063-137.795 138.809 17.684 17.784 108.582-109.386v290.693h25v-288.93l108.629 108.612 17.639-17.83zm-199.03 374.84v25.16h400v-25.16z" transform="translate(0 -680.077)"/><path style="color:#000;font-style:normal;font-variant:normal;font-weight:400;font-stretch:normal;font-size:medium;line-height:normal;font-family:sans-serif;text-indent:0;text-align:start;text-decoration:none;text-decoration-line:none;text-decoration-style:solid;text-decoration-color:#000;letter-spacing:normal;word-spacing:normal;text-transform:none;direction:ltr;block-progression:tb;writing-mode:lr-tb;baseline-shift:baseline;text-anchor:start;white-space:normal;clip-rule:nonzero;display:inline;overflow:visible;visibility:visible;opacity:1;isolation:auto;mix-blend-mode:normal;color-interpolation:sRGB;color-interpolation-filters:linearRGB;solid-color:#000;solid-opacity:1;fill:#000;fill-opacity:1;fill-rule:evenodd;stroke:none;stroke-width:25.00000191;stroke-linecap:butt;stroke-linejoin:miter;stroke-miterlimit:4;stroke-dasharray:none;stroke-dashoffset:0;stroke-opacity:1;color-rendering:auto;image-rendering:auto;shape-rendering:auto;text-rendering:auto;enable-background:accumulate" d="m260.108 4282.18-224.05 223.642 17.662 17.694 206.388-206.014 88.493 88.314-241.098 240.659-53.434-53.329 202.905-202.535 17.316 17.282-165.988 165.685 17.662 17.693L309.68 4407.89l-52.71-52.6L18.68 4593.15l88.824 88.646 276.486-275.98-123.88-123.635z" transform="translate(0 -680.077)"/><path style="opacity:1;fill:#000;fill-opacity:1;stroke:none;stroke-width:1;stroke-miterlimit:4;stroke-dasharray:none;stroke-dashoffset:0;stroke-opacity:1" d="M598.672 3600.506v127.156h24.896v-84.445l108.547 109.092 17.604-17.692-108.547-109.092h84.023v-25.02H598.672zm273.476 0v25.02h84.026l-108.547 109.091 17.603 17.692 108.547-109.092v84.445h24.895v-127.156H872.148zm-140.033 248.197-108.547 109.09v-84.443h-24.896v127.156h126.523v-25.02h-84.023l108.547-109.091-17.604-17.692zm133.115 0-17.603 17.692 108.547 109.091h-84.026v25.02h126.524V3873.35h-24.895v84.443l-108.547-109.09z"/><path style="opacity:1;fill:#000;fill-opacity:1;stroke:none;stroke-width:1;stroke-miterlimit:4;stroke-dasharray:none;stroke-dashoffset:0;stroke-opacity:1" d="m1218.375 4280.583-17.603 17.691 108.547 109.092h-84.024v25.02h126.524v-127.157h-24.897v84.444l-108.547-109.09zm364.793 0-108.547 109.09v-84.444h-24.896v127.156h126.523v-25.02h-84.023l108.547-109.09-17.604-17.692zm-357.873 248.197v25.02h84.024l-108.547 109.091 17.603 17.692 108.547-109.09v84.443h24.897V4528.78h-126.524zm224.43 0v127.156h24.896v-84.443l108.547 109.09 17.604-17.692-108.547-109.092h84.023v-25.02h-126.523z" transform="translate(0 -680.077)"/><path d="M1800.857 3819.568q0 50 15 79.792 16.042 31.667 49.792 46.875 34.167 16.042 69.792 19.792 32.083 3.75 69.166 3.75 16.042 0 40.209-1.25 20.208-1.25 43.02-5.521 22.813-4.271 39.271-11.146 18.75-7.917 34.584-21.354 15.833-13.438 24.583-31.146 14.583-29.792 14.583-79.792 0-57.083-32.708-95.416 6.458-19.375 6.458-40.625 0-28.125-12.083-52.292-24.792 0-44.27 8.75-19.48 8.75-46.147 29.583-32.708-7.708-67.5-7.708-37.916 0-74.166 8.333-27.292-21.458-46.771-30.208-19.48-8.75-44.27-8.75-12.293 23.958-12.293 52.292 0 21.458 6.459 41.041-32.709 38.334-32.709 95zm53.75 42.292q0-29.583 16.98-49.375 16.979-19.792 44.687-19.792 11.042 0 46.875 5.209 18.333 2.708 37.708 2.708t37.917-2.708q36.458-5.209 46.875-5.209 27.708 0 44.583 19.792t16.875 49.375q0 21.042-7.708 37.083-7.708 15.417-19.27 24.48-11.563 9.062-29.48 14.479-29.583 8.958-69.583 8.958h-40.417q-19.792 0-35.833-1.875-17.084-1.667-34.375-7.292-17.292-5.625-28.542-14.166-12.292-9.584-19.792-25.521-7.5-15.938-7.5-36.146zm38.542 0q0 9.792 3.125 19.792 3.125 10.833 10.73 18.646 7.603 7.812 16.978 7.812 10 0 17.5-8.125 13.125-15.208 13.125-38.125 0-9.583-2.708-19.583-3.125-10.834-10.729-18.646-7.604-7.813-17.188-7.813-10 0-17.5 8.334-13.333 14.375-13.333 37.708zm153.958 0q0 9.792 3.125 19.792 3.125 10.833 10.625 18.646 7.5 7.812 16.875 7.812 10.209 0 17.709-8.125 13.125-15.208 13.125-38.125 0-8.958-2.917-19.583-3.125-10.834-10.729-18.646-7.604-7.813-17.188-7.813-10 0-17.083 8.334-13.542 14.375-13.542 37.708z"/><path style="opacity:1;fill:#000;fill-opacity:1;stroke:none;stroke-width:25;stroke-miterlimit:4;stroke-dasharray:none;stroke-dashoffset:0;stroke-opacity:1" d="M2562.762 3600.783v28.7l-27.762.01v-28.706h-25v28.707h-27v-.043h-25v371.756h285v-371.756l-51.238.01v-28.678h-25v28.682l-27.762.01v-28.688h-25v28.692h-26.238v-28.696h-25zM2483 3654.498h27v21.287h25v-21.287h27.762v21.287h25v-21.287H2614v21.287h25v-21.287h27.762v21.287h25v-21.287H2718v45h-235v-45zm0 70h235v251.713h-235v-251.713zm25.455 30.252v25h30.608v-25h-30.608zm55.608 0v25h127.533v-25h-127.534zm-55.608 58v25h30.608v-25h-30.608zm55.608 0v25h127.488v-25h-127.488zm-55.608 58v25h30.608v-25h-30.608zm55.608 0v25h127.081v-25h-127.081zm-55.608 56v25h30.608v-25h-30.608zm55.608 0v25h127.507v-25h-127.508z"/><path style="opacity:1;fill:#000;fill-opacity:1;stroke:none;stroke-width:25;stroke-miterlimit:4;stroke-dasharray:none;stroke-dashoffset:0;stroke-opacity:1" d="m3380.009 4321.117-247.477 264.433-117.387-110.95-16.073 19.296 136.45 127.22 263.55-283.731z" transform="translate(0 -680.077)"/></svg>