<svg width="396" height="401" viewBox="0 0 396 401" fill="none" xmlns="http://www.w3.org/2000/svg">
<path d="M165.135 0.156494C74.1386 0.156494 0.0864258 74.2085 0.0864258 165.205C0.0864258 256.201 74.1386 330.253 165.135 330.253C204.801 330.253 241.243 316.177 269.74 292.765L377.133 400.156L395.914 381.376L288.85 274.314C314.556 245.203 330.183 206.995 330.183 165.205C330.183 74.2085 256.131 0.156494 165.135 0.156494ZM165.135 26.7159C241.777 26.7159 303.624 88.5623 303.624 165.205C303.624 241.847 241.777 303.694 165.135 303.694C88.4924 303.694 26.6459 241.847 26.6459 165.205C26.6459 88.5623 88.4924 26.7159 165.135 26.7159Z" fill="black"/>
</svg>
